<?xml version="1.0" encoding="UTF-8"?>
<svg xmlns="http://www.w3.org/2000/svg" viewBox="0 0 64 64" width="64" height="64" role="img" aria-labelledby="title desc">
  <title>10x‑LinguaPairs</title>
  <desc>Ikona przedstawiająca dwa słupki punktów połączone krzywą — nauka łączeniem par tłumaczeń PL↔EN.</desc>
  <defs>
    <linearGradient id="g" x1="0" y1="0" x2="64" y2="64" gradientUnits="userSpaceOnUse">
      <stop offset="0" stop-color="#06b6d4"/>
      <stop offset="1" stop-color="#22c55e"/>
    </linearGradient>
    <filter id="s" x="-10%" y="-10%" width="120%" height="120%">
      <feDropShadow dx="0" dy="1" stdDeviation="1" flood-opacity=".15"/>
    </filter>
  </defs>

  <!-- Subtelna płyta tła dla czytelności w małych rozmiarach -->
  <rect x="4" y="4" width="56" height="56" rx="12" fill="#ffffff" stroke="#e5e7eb" stroke-width="1" filter="url(#s)"/>

  <!-- Lewa kolumna (źródłowy język) -->
  <circle cx="20" cy="18" r="5" fill="#ef4444"/>
  <circle cx="20" cy="32" r="5" fill="#ef4444"/>
  <circle cx="20" cy="46" r="5" fill="#ef4444"/>

  <!-- Prawa kolumna (docelowy język) -->
  <circle cx="44" cy="18" r="5" fill="#3b82f6"/>
  <circle cx="44" cy="32" r="5" fill="#3b82f6"/>
  <circle cx="44" cy="46" r="5" fill="#3b82f6"/>

  <!-- Krzywa łączenia (intencja: dopasuj pary) -->
  <path d="M20 32 C 28 32, 36 24, 44 18" fill="none" stroke="url(#g)" stroke-width="3.5" stroke-linecap="round"/>
  <!-- Druga krzywa dla dwukierunkowości PL↔EN -->
  <path d="M20 46 C 28 46, 36 40, 44 32" fill="none" stroke="#10b981" stroke-opacity="0.8" stroke-width="3.5" stroke-linecap="round"/>

  <!-- Delikatne strzałki wskazujące wymienność (↔) -->
  <path d="M41 18 l5 0 l-2.2 -2.2 M46 18 l-2.2 2.2" fill="none" stroke="#0ea5e9" stroke-width="2" stroke-linecap="round" stroke-linejoin="round"/>
  <path d="M17 46 l-5 0 l2.2 2.2 M12 46 l2.2 -2.2" fill="none" stroke="#22c55e" stroke-width="2" stroke-linecap="round" stroke-linejoin="round"/>

  <!-- Dyskretne oznaczenia L1/L2 bez tekstu (akcent kolorystyczny) -->
  <circle cx="20" cy="32" r="7.5" fill="none" stroke="#ef4444" stroke-opacity="0.25" stroke-width="2"/>
  <circle cx="44" cy="18" r="7.5" fill="none" stroke="#3b82f6" stroke-opacity="0.25" stroke-width="2"/>
</svg>

